<?xml version="1.0" encoding="UTF-8"?>
<svg xmlns="http://www.w3.org/2000/svg" xmlns:xlink="http://www.w3.org/1999/xlink" width="24px" height="24px" viewBox="0 0 24 24" version="1.1">
<g id="surface1">
<path style=" stroke:none;fill-rule:nonzero;fill:rgb(20.392157%,87.843137%,63.137255%);fill-opacity:1;" d="M 24 12 C 24 18.632812 18.632812 24 12 24 C 5.367188 24 0 18.632812 0 12 C 0 5.367188 5.367188 0 12 0 C 18.632812 0 24 5.367188 24 12 "/>
<path style=" stroke:none;fill-rule:nonzero;fill:rgb(0%,0%,0%);fill-opacity:1;" d="M 19.398438 9.632812 L 20.832031 8.066406 L 17.632812 8.066406 C 16.035156 6.964844 14.101562 6.332031 12 6.332031 C 9.898438 6.332031 7.964844 6.964844 6.367188 8.066406 L 3.167969 8.066406 L 4.601562 9.632812 C 3.699219 10.433594 3.167969 11.601562 3.167969 12.898438 C 3.167969 15.332031 5.132812 17.300781 7.566406 17.300781 C 8.734375 17.300781 9.765625 16.867188 10.566406 16.132812 L 12 17.667969 L 13.398438 16.132812 C 14.199219 16.867188 15.234375 17.300781 16.398438 17.300781 C 18.832031 17.300781 20.800781 15.332031 20.800781 12.898438 C 20.832031 11.601562 20.265625 10.433594 19.398438 9.632812 M 7.601562 15.867188 C 5.933594 15.867188 4.601562 14.535156 4.601562 12.867188 C 4.601562 11.199219 5.933594 9.867188 7.601562 9.867188 C 9.265625 9.867188 10.601562 11.199219 10.601562 12.867188 C 10.566406 14.535156 9.234375 15.867188 7.601562 15.867188 M 12 12.800781 C 12 10.832031 10.566406 9.132812 8.699219 8.433594 C 9.734375 8 10.832031 7.765625 12 7.765625 C 13.167969 7.765625 14.300781 8 15.300781 8.433594 C 13.433594 9.167969 12 10.832031 12 12.800781 M 16.398438 15.867188 C 14.734375 15.867188 13.398438 14.535156 13.398438 12.867188 C 13.398438 11.199219 14.734375 9.867188 16.398438 9.867188 C 18.066406 9.867188 19.398438 11.199219 19.398438 12.867188 C 19.398438 14.535156 18.066406 15.867188 16.398438 15.867188 M 16.398438 11.332031 C 15.535156 11.332031 14.832031 12.035156 14.832031 12.898438 C 14.832031 13.765625 15.535156 14.464844 16.398438 14.464844 C 17.265625 14.464844 17.964844 13.765625 17.964844 12.898438 C 17.964844 12.035156 17.265625 11.332031 16.398438 11.332031 M 9.167969 12.898438 C 9.167969 13.765625 8.464844 14.464844 7.601562 14.464844 C 6.734375 14.464844 6.035156 13.765625 6.035156 12.898438 C 6.035156 12.035156 6.734375 11.332031 7.601562 11.332031 C 8.464844 11.332031 9.167969 12.035156 9.167969 12.898438 "/>
</g>
</svg>
